Coordinates
version=1
nRows=9
nColumns=36
inDegrees=yes

Units are S.I. units (second, meters, Newtons, ...)
If the header above contains a line with 'inDegrees', this indicates whether rotational values are in degrees (yes) or radians (no).

endheader
time	pelvis_tilt	pelvis_list	pelvis_rotation	pelvis_tx	pelvis_ty	pelvis_tz	hip_flexion_r	hip_adduction_r	hip_rotation_r	knee_angle_r	knee_angle_r_beta	ankle_angle_r	subtalar_angle_r	mtp_angle_r	hip_flexion_l	hip_adduction_l	hip_rotation_l	knee_angle_l	knee_angle_l_beta	ankle_angle_l	subtalar_angle_l	mtp_angle_l	lumbar_extension	lumbar_bending	lumbar_rotation	arm_flex_r	arm_add_r	arm_rot_r	elbow_flex_r	pro_sup_r	arm_flex_l	arm_add_l	arm_rot_l	elbow_flex_l	pro_sup_l
      1.73000000	    -16.99782966	      0.16614179	     -5.40469044	     -0.35125475	      0.63906019	     -0.56280508	     82.99426893	      1.54375918	      4.50696126	    101.95222290	      1.77940197	     32.97118221	    -11.23363113	     -7.49997515	     83.85806119	    -10.37212539	      2.48541690	    102.09396960	      1.78187592	     31.39099223	    -15.16527178	     -7.49997515	    -23.37033532	      2.32674833	      1.49533137	    -13.63926169	     -8.96455186	    -21.01324051	     91.19708198	    112.17974829	     -9.78214549	     -9.91862604	    -24.73714848	     83.45007355	    106.65378861
      1.74000000	    -17.50009587	      0.34169310	     -5.33153558	     -0.35070654	      0.63265147	     -0.56381928	     84.30226916	      1.10744217	      4.54368357	    103.03916511	      1.79837269	     33.03771965	    -11.05845186	     -7.49997531	     84.84783572	    -10.10128862	      2.52691542	    102.95195047	      1.79685051	     31.96689815	    -15.30127228	     -7.49997531	    -23.75687450	      2.12828777	      1.77775531	    -10.24786261	     -8.77450162	    -18.88855498	     92.24163946	    112.42532638	     -6.01801621	     -8.30270963	    -23.16824435	     84.45059324	    106.84942175
      1.75000000	    -17.81681988	      0.58964757	     -5.24062494	     -0.35015907	      0.62734639	     -0.56516392	     85.26710943	      0.54752098	      4.60940122	    103.92409450	      1.81381762	     33.32627426	    -10.79683493	     -7.49997551	     85.51948793	     -9.76938246	      2.47567187	    103.65650140	      1.80914724	     32.54133054	    -15.18868707	     -7.49997551	    -24.46512439	      1.85004350	      1.82883991	     -6.55833395	     -8.89432863	    -16.36951660	     93.43369624	    112.73608888	     -2.26842118	     -6.95495345	    -21.24919411	     85.40065260	    107.11846676
      1.76000000	    -18.02295307	      0.90425265	     -5.11598536	     -0.34950049	      0.62264369	     -0.56641947	     86.03978089	     -0.21710968	      4.60872201	    104.74773781	      1.82819291	     34.57893325	     -9.29479974	     -7.49997644	     86.02618143	     -9.49381441	      2.29888280	    104.35031517	      1.82125658	     33.61800423	    -14.29118504	     -7.49997644	    -25.21086248	      1.41973624	      1.24565998	     -2.17228888	     -9.06956333	    -13.17626413	     94.09288945	    113.26552802	      1.12968249	     -5.93447078	    -19.38148043	     86.65318596	    107.66998372
      1.77000000	    -18.06475805	      1.19631868	     -4.71825872	     -0.34902332	      0.61820846	     -0.56791134	     86.63064079	     -1.16793866	      4.62575475	    105.63386213	      1.84365870	     34.82110415	     -9.16716122	     -7.49997662	     86.48518652	     -8.88321721	      2.19485162	    104.99766080	      1.83255489	     33.76966289	    -14.30416438	     -7.49997662	    -25.97924307	      1.17874916	      1.07897061	      1.91883909	     -9.27171063	    -10.72726079	     95.26887366	    113.49170231	      5.30234976	     -4.85125755	    -16.85428568	     87.33902484	    107.91856007
      1.78000000	    -18.05721514	      1.59438800	     -4.44241139	     -0.34867650	      0.61420543	     -0.56874735	     87.10947460	     -1.85016880	      4.90281108	    106.39099759	      1.85687320	     35.42019148	     -8.78145511	     -7.49997685	     86.86262225	     -8.50298322	      1.88216658	    105.60078738	      1.84308143	     33.93654793	    -14.29004920	     -7.49997685	    -26.55691087	      0.79081565	      0.85960578	      6.33842797	     -9.55993441	     -7.58181543	     96.28037251	    113.68588676	      9.52936237	     -4.37279258	    -13.42886191	     87.57727228	    108.14871894
      1.79000000	    -18.11858516	      1.93871760	     -4.17378772	     -0.34828024	      0.61079579	     -0.56916638	     87.54716093	     -2.35169783	      5.19388154	    107.02505920	      1.86793967	     36.10467474	     -8.44352535	     -7.49997707	     87.26275986	     -8.18417092	      1.60496965	    106.10506371	      1.85188271	     34.00958688	    -14.21789058	     -7.49997707	    -27.02686289	      0.42020533	      0.70391607	     10.97651518	     -9.78639063	     -4.52057517	     97.14708097	    113.82359500	     13.93887770	     -4.03758836	     -9.72417004	     87.92085295	    108.37344959
      1.80000000	    -18.23122502	      2.24645989	     -4.00123567	     -0.34780430	      0.60805718	     -0.56897180	     87.96395935	     -2.61682870	      5.45702602	    107.54140061	      1.87695152	     36.65621958	     -8.17612166	     -7.49997729	     87.60765236	     -8.05625809	      1.34343453	    106.48427498	      1.85850120	     34.05860536	    -14.13875283	     -7.49997729	    -27.41347585	     -0.03548031	      0.56813574	     15.88834908	     -9.89025947	     -1.46393204	     97.92825794	    113.92872700	     18.49618189	     -3.85700379	     -5.80754256	     88.48926737	    108.60360408
      1.81000000	    -18.34535688	      2.54679068	     -3.91147728	     -0.34733176	      0.60583874	     -0.56840042	     88.34920106	     -2.69559697	      5.74598849	    107.98640248	      1.88471827	     37.03930331	     -7.97595872	     -7.49997749	     87.85928574	     -8.06228952	      1.08086957	    106.76524284	      1.86340501	     34.12904785	    -14.04273732	     -7.49997749	    -27.66703631	     -0.54212561	      0.44799011	     21.11358180	     -9.82145896	      1.59136635	     98.61384232	    113.98732418	     23.24449591	     -3.71653779	     -1.80222414	     89.28847630	    108.82760541
